<?xml version="1.0" encoding="utf-8"?>
<!-- Generator: Adobe Illustrator 27.7.0, SVG Export Plug-In . SVG Version: 6.00 Build 0)  -->
<svg version="1.1" id="Brand_Stuff" xmlns="http://www.w3.org/2000/svg" xmlns:xlink="http://www.w3.org/1999/xlink" x="0px"
	 y="0px" viewBox="0 0 960.2 269.1" style="enable-background:new 0 0 960.2 269.1;" xml:space="preserve">
<style type="text/css">
	.st0{fill:#FFFFFF;}
	.st1{fill:#FCB51A;}
</style>
<g>
	<g>
		<g>
			<path class="st0" d="M329.1,133.2c0-44,34.2-76.5,81-76.5c46.5,0,81,32.3,81,76.5c0,44.2-34.5,76.5-81,76.5
				C363.4,209.8,329.1,177.2,329.1,133.2z M456.4,133.2c0-28.1-19.9-47.4-46.3-47.4c-26.4,0-46.3,19.2-46.3,47.4
				c0,28.1,19.9,47.4,46.3,47.4C436.5,180.6,456.4,161.3,456.4,133.2z"/>
			<path class="st0" d="M508.4,59.2h67.2c48.4,0,81.6,29.2,81.6,74c0,44.8-33.2,74-81.6,74h-67.2V59.2z M573.9,179.1
				c29.4,0,48.6-17.5,48.6-45.9c0-28.3-19.2-45.9-48.6-45.9h-31.3v91.8H573.9z"/>
			<path class="st0" d="M703.1,87.1h-47.4V59.2h129v27.9h-47.4v120.1h-34.2V87.1z"/>
			<path class="st0" d="M852.8,149.1l-19.9,20.7v37.4h-34v-148h34v69.1l65.5-69.1h38.1l-61.3,66l64.9,82h-40L852.8,149.1z"/>
		</g>
	</g>
	<g>
		<path class="st1" d="M209.5,51.7c9.1,0,16.5-7.3,16.5-16.3c0-9.1-7.3-16.5-16.3-16.5c-9.1,0-16.5,7.3-16.5,16.3
			C193.1,44.2,200.5,51.6,209.5,51.7z M209.7,21c7.9,0,14.2,6.5,14.2,14.3c0,7.9-6.5,14.2-14.3,14.2c-7.9,0-14.2-6.5-14.2-14.3
			C195.4,27.3,201.8,20.9,209.7,21z"/>
		<path class="st1" d="M209.6,45.5c5.6,0,10.3-4.5,10.3-10.2c0-5.6-4.5-10.3-10.2-10.3s-10.3,4.5-10.3,10.2
			C199.4,40.8,203.9,45.5,209.6,45.5z M209.7,27.2c4.5,0,8.1,3.7,8,8.1c0,4.5-3.7,8.1-8.1,8c-4.5,0-8.1-3.7-8-8.1
			C201.6,30.8,205.2,27.2,209.7,27.2z"/>
		<path class="st1" d="M260.4,130.2c-1.8,0-3.3,1.5-3.3,3.3c0,64.6-52.6,117.2-117.2,117.2c-64.6,0-117.2-52.6-117.2-117.2
			c0-64.6,52.6-117.2,117.2-117.2c1.8,0,3.3-1.5,3.3-3.3c0-1.8-1.5-3.3-3.3-3.3C71.6,9.6,16.1,65.2,16.1,133.5
			c0,68.3,55.6,123.9,123.9,123.9c68.3,0,123.9-55.6,123.9-123.9C263.8,131.6,262.3,130.2,260.4,130.2z"/>
		<path class="st1" d="M90.1,58.6c-0.6,0.4-0.9,1-1,1.8c0,0.6,0.2,1.2,0.6,1.6c0.1,0.1,0.2,0.2,0.3,0.2c10.6,7.7,21.7,14.7,33.1,21
			c-7.1,10.4-13.6,22.4-19,35.5c-5.4,13.1-9.3,26.2-11.6,38.6c-6.6-1.9-13.2-3.6-19.8-5.1c-0.2-13.4,2.3-27.5,7.6-41l11.5,4.8
			c0.8,0.3,1.6,0.2,2.3-0.4c0.6-0.5,0.9-1.4,0.7-2.2L83.6,73.1c-0.2-0.6-0.6-1.2-1.3-1.4c-0.6-0.3-1.3-0.2-1.9,0.1L44.2,92.4
			c-0.7,0.4-1.1,1.2-1.1,2c0.1,0.8,0.6,1.5,1.3,1.9l11.5,4.8c-8.4,21.7-8.1,45.3,0.8,66.8c4.6,11.1,11.2,21,19.5,29.2
			c8.2,8.2,18.1,14.8,29.1,19.4c0,0,0.1,0,0.1,0c27.7,11.5,59.2,8.4,84.2-8.2c0.6-0.4,0.9-1,1-1.8c0-0.7-0.3-1.4-0.9-1.8
			c-10.6-7.7-21.7-14.7-33.1-21c7.1-10.4,13.6-22.4,19-35.5c5.4-13.1,9.3-26.2,11.6-38.6c6.6,1.9,13.2,3.6,19.8,5.1
			c0.2,13.4-2.3,27.5-7.6,41l-11.5-4.8c-0.8-0.3-1.6-0.2-2.3,0.4c-0.6,0.5-0.9,1.4-0.7,2.2l11.1,40.2c0.1,0.4,0.3,0.7,0.6,1
			c0.2,0.2,0.4,0.4,0.7,0.5c0.6,0.3,1.3,0.2,1.9-0.1l36.3-20.6c0.7-0.4,1.1-1.2,1.1-2c-0.1-0.8-0.6-1.5-1.3-1.9l-11.5-4.8
			c8.4-21.7,8.1-45.3-0.8-66.8c-9.2-22.2-26.5-39.5-48.7-48.7C146.6,38.9,115.1,42,90.1,58.6z M127,85.3c8.3,4.5,16.9,8.5,25.5,12.2
			l-13.8,33.2L109,118.3C114.2,106.2,120.3,94.9,127,85.3z M107.3,122.3l29.8,12.3l-13.8,33.2c-8.7-3.5-17.6-6.7-26.7-9.4
			C98.8,146.9,102.4,134.6,107.3,122.3z M60.8,166.3c-8.8-21.1-8.8-44.4,0-65.5c0.2-0.5,0.2-1.1,0-1.7c-0.2-0.5-0.6-0.9-1.2-1.2
			L50.2,94l30-17.1l9.1,33.3l-9.4-3.9c-0.5-0.2-1.1-0.2-1.7,0c-0.5,0.2-1,0.6-1.2,1.2c-6.3,15.1-9.2,30.9-8.7,45.9c0,0,0,0,0,0
			c-0.1,0.3,0,0.7,0,1c0.3,6.6,1.1,13,2.7,19.2c2,7.9,5.1,15,9,21.2C71.8,186.7,65.3,177.1,60.8,166.3z M75.2,172.5
			c-1.3-5.1-2.1-10.4-2.5-15.8c6.4,1.4,12.7,3.1,19,4.9c-1.1,6.8-1.7,13.3-1.6,19.4c0,9.6,1.5,17.5,4.2,23.6
			C85.3,196.9,78.7,186,75.2,172.5z M105.3,211.5c-6.8-4.3-10.8-15.2-10.8-30.6c0-5.7,0.5-11.8,1.5-18.2c8.7,2.7,17.3,5.7,25.7,9.1
			L105.3,211.5z M109.3,213.2l16.4-39.6c8.4,3.5,16.6,7.5,24.6,11.8c-3.8,5.2-7.7,9.9-11.8,13.9C127.6,210.1,117.1,215,109.3,213.2z
			 M184.7,206.5c-19.5,12-42.8,15.5-64.8,10.2c6.8-2.1,14.1-6.9,21.7-14.4c4.3-4.3,8.5-9.4,12.6-14.9
			C164.7,193.1,174.9,199.5,184.7,206.5z M152.9,181.7c-8.3-4.5-16.9-8.5-25.5-12.2l13.8-33.2l29.8,12.3
			C165.6,160.8,159.5,172.1,152.9,181.7z M172.5,144.6l-29.8-12.3l13.8-33.2c8.7,3.5,17.6,6.7,26.7,9.4
			C181.1,120.1,177.4,132.4,172.5,144.6z M219,100.7c8.8,21.1,8.8,44.4,0,65.5c-0.2,0.5-0.2,1.1,0,1.7c0.2,0.5,0.6,0.9,1.2,1.2
			l9.4,3.9l-30,17.1l-9.1-33.3l9.4,3.9c0.5,0.2,1.1,0.2,1.7,0c0.5-0.2,1-0.6,1.2-1.2c6.3-15.1,9.2-30.9,8.7-45.9c0,0,0,0,0,0
			c0.1-0.3,0-0.7,0-1c-0.3-6.6-1.1-13-2.7-19.2c-2-7.9-5.1-15-9-21.2C208,80.2,214.5,89.9,219,100.7z M204.6,94.5
			c1.3,5.1,2.1,10.4,2.4,15.8c-6.4-1.4-12.7-3.1-19-4.9c1.1-6.8,1.7-13.3,1.6-19.4c0-9.6-1.5-17.5-4.1-23.6
			C194.5,70.1,201.1,81,204.6,94.5z M174.6,55.4c0.9,0.6,1.8,1.2,2.6,2c5.2,5.2,8.2,15.3,8.2,28.6c0,5.7-0.5,11.8-1.5,18.2
			c-8.7-2.7-17.3-5.7-25.7-9.1L174.6,55.4z M170.6,53.8l-16.4,39.6c-8.4-3.5-16.6-7.5-24.6-11.8c3.8-5.2,7.7-9.9,11.8-13.9
			C152.2,56.9,162.7,52,170.6,53.8z M138.2,64.7c-4.3,4.3-8.5,9.4-12.6,14.9c-10.5-5.8-20.7-12.2-30.5-19.1
			C114.7,48.5,138,45,160,50.3C153.2,52.4,145.8,57.2,138.2,64.7z"/>
		<path class="st1" d="M151.6,17.1c1.8,0,3.2-1.5,3.2-3.3c0-1.8-1.5-3.2-3.3-3.2s-3.2,1.5-3.2,3.3S149.8,17.1,151.6,17.1z"/>
		<path class="st1" d="M164.5,19.1c1.8,0.2,3.4-1.2,3.6-3c0.2-1.8-1.2-3.4-3-3.6c-1.8-0.2-3.4,1.2-3.6,3
			C161.3,17.3,162.7,18.9,164.5,19.1z"/>
		<path class="st1" d="M177.1,22.5c1.8,0.4,3.5-0.8,3.9-2.5c0.4-1.8-0.8-3.5-2.5-3.9c-1.8-0.4-3.5,0.8-3.9,2.5
			C174.1,20.4,175.3,22.1,177.1,22.5z"/>
		<path class="st1" d="M189.2,27.2c1.7,0.6,3.6-0.4,4.1-2.1c0.6-1.7-0.4-3.6-2.1-4.1c-1.7-0.6-3.6,0.4-4.1,2.1
			C186.5,24.8,187.5,26.7,189.2,27.2z"/>
		<path class="st1" d="M223.6,47.3c-1.1,1.4-0.9,3.5,0.5,4.6c1.4,1.1,3.5,0.9,4.6-0.5c1.1-1.4,0.9-3.5-0.5-4.6
			C226.8,45.6,224.8,45.9,223.6,47.3z"/>
		<path class="st1" d="M237.3,61.7c1.3-1.3,1.3-3.3,0-4.6c-1.3-1.3-3.3-1.3-4.6,0c-1.3,1.3-1.3,3.3,0,4.6
			C233.9,63,236,63,237.3,61.7z"/>
		<path class="st1" d="M244.7,73c1.4-1.1,1.7-3.2,0.6-4.6c-1.1-1.4-3.2-1.7-4.6-0.6c-1.4,1.1-1.7,3.2-0.6,4.6
			C241.2,73.8,243.3,74.1,244.7,73z"/>
		<path class="st1" d="M246.3,83.9c1,1.5,3,2,4.5,1.1c1.5-1,2-3,1.1-4.5c-1-1.5-3-2-4.5-1.1C245.8,80.3,245.4,82.4,246.3,83.9z"/>
		<path class="st1" d="M251.2,96c0.8,1.6,2.7,2.3,4.4,1.6c1.6-0.8,2.3-2.7,1.6-4.4c-0.8-1.6-2.7-2.3-4.4-1.6S250.4,94.4,251.2,96z"
			/>
		<path class="st1" d="M254.7,108.6c0.6,1.7,2.4,2.6,4.2,2c1.7-0.6,2.6-2.4,2-4.2c-0.6-1.7-2.4-2.6-4.2-2
			C255,105,254.1,106.8,254.7,108.6z"/>
		<path class="st1" d="M259.3,117.5c-1.8,0.4-2.9,2.1-2.5,3.9c0.4,1.8,2.1,2.9,3.9,2.5s2.9-2.1,2.5-3.9
			C262.8,118.2,261,117.1,259.3,117.5z"/>
	</g>
</g>
</svg>
